<?xml version="1.0" encoding="UTF-8"?>
<svg id="Layer_2" data-name="Layer 2" xmlns="http://www.w3.org/2000/svg" xmlns:xlink="http://www.w3.org/1999/xlink" viewBox="0 0 1920 2814.04">
  <defs>
    <style>
      .cls-1 {
        fill: url(#_新規グラデーションスウォッチ_6-16);
      }

      .cls-1, .cls-2, .cls-3, .cls-4, .cls-5, .cls-6, .cls-7, .cls-8, .cls-9, .cls-10, .cls-11, .cls-12, .cls-13, .cls-14, .cls-15, .cls-16, .cls-17, .cls-18, .cls-19, .cls-20, .cls-21, .cls-22, .cls-23, .cls-24, .cls-25, .cls-26, .cls-27, .cls-28, .cls-29, .cls-30, .cls-31, .cls-32, .cls-33, .cls-34, .cls-35, .cls-36, .cls-37, .cls-38, .cls-39, .cls-40, .cls-41 {
        stroke-width: 0px;
      }

      .cls-2 {
        fill: url(#_新規グラデーションスウォッチ_6-17);
      }

      .cls-3 {
        fill: url(#_新規グラデーションスウォッチ_6-18);
      }

      .cls-4 {
        fill: url(#_新規グラデーションスウォッチ_6-12);
      }

      .cls-5 {
        fill: url(#_新規グラデーションスウォッチ_6-15);
      }

      .cls-6 {
        fill: url(#_新規グラデーションスウォッチ_6-13);
      }

      .cls-7 {
        fill: url(#_新規グラデーションスウォッチ_6-14);
      }

      .cls-8 {
        fill: url(#_新規グラデーションスウォッチ_6-10);
      }

      .cls-9 {
        fill: url(#_新規グラデーションスウォッチ_6-11);
      }

      .cls-10 {
        fill: url(#_新規グラデーションスウォッチ_1-14);
      }

      .cls-11 {
        fill: url(#_新規グラデーションスウォッチ_1-11);
      }

      .cls-12 {
        fill: url(#_新規グラデーションスウォッチ_1-13);
      }

      .cls-13 {
        fill: url(#_新規グラデーションスウォッチ_1-10);
      }

      .cls-14 {
        fill: url(#_新規グラデーションスウォッチ_1-12);
      }

      .cls-42 {
        clip-path: url(#clippath);
      }

      .cls-15, .cls-43 {
        fill: none;
      }

      .cls-16 {
        fill: url(#_新規グラデーションスウォッチ_1);
      }

      .cls-17 {
        fill: url(#_新規グラデーションスウォッチ_6);
      }

      .cls-18 {
        fill: url(#_新規グラデーションスウォッチ_6-6);
      }

      .cls-19 {
        fill: url(#_新規グラデーションスウォッチ_6-3);
      }

      .cls-20 {
        fill: url(#_新規グラデーションスウォッチ_6-8);
      }

      .cls-21 {
        fill: url(#_新規グラデーションスウォッチ_6-4);
      }

      .cls-22 {
        fill: url(#_新規グラデーションスウォッチ_6-7);
      }

      .cls-23 {
        fill: url(#_新規グラデーションスウォッチ_6-5);
      }

      .cls-24 {
        fill: url(#_新規グラデーションスウォッチ_6-9);
      }

      .cls-25 {
        fill: url(#_新規グラデーションスウォッチ_6-2);
      }

      .cls-26 {
        fill: url(#_新規グラデーションスウォッチ_1-9);
      }

      .cls-27 {
        fill: url(#_新規グラデーションスウォッチ_1-2);
      }

      .cls-28 {
        fill: url(#_新規グラデーションスウォッチ_1-4);
      }

      .cls-29 {
        fill: url(#_新規グラデーションスウォッチ_1-3);
      }

      .cls-30 {
        fill: url(#_新規グラデーションスウォッチ_1-8);
      }

      .cls-31 {
        fill: url(#_新規グラデーションスウォッチ_1-7);
      }

      .cls-32 {
        fill: url(#_新規グラデーションスウォッチ_1-5);
      }

      .cls-33 {
        fill: url(#_新規グラデーションスウォッチ_1-6);
      }

      .cls-44 {
        clip-path: url(#clippath-1);
      }

      .cls-45, .cls-34, .cls-35, .cls-36, .cls-37, .cls-38 {
        opacity: .7;
      }

      .cls-34 {
        fill: url(#_新規グラデーションスウォッチ_6-21);
      }

      .cls-35 {
        fill: url(#_新規グラデーションスウォッチ_6-20);
      }

      .cls-36 {
        fill: url(#_新規グラデーションスウォッチ_6-23);
      }

      .cls-37 {
        fill: url(#_新規グラデーションスウォッチ_6-22);
      }

      .cls-38 {
        fill: url(#_新規グラデーションスウォッチ_6-19);
      }

      .cls-43 {
        stroke: #fff;
        stroke-linecap: round;
        stroke-linejoin: round;
        stroke-width: 3.95px;
      }

      .cls-39 {
        fill: #b7e7d5;
      }

      .cls-40 {
        fill: #fff;
      }

      .cls-41 {
        fill: #e6f2f3;
      }
    </style>
    <clipPath id="clippath">
      <rect class="cls-15" y="600.63" width="1920" height="505"/>
    </clipPath>
    <linearGradient id="_新規グラデーションスウォッチ_1" data-name="新規グラデーションスウォッチ 1" x1="117.61" y1="923" x2="3465.18" y2="1105.97" gradientUnits="userSpaceOnUse">
      <stop offset="0" stop-color="#b7e7d5"/>
      <stop offset=".5" stop-color="#d5efff"/>
      <stop offset="1" stop-color="#d2faff"/>
    </linearGradient>
    <linearGradient id="_新規グラデーションスウォッチ_1-2" data-name="新規グラデーションスウォッチ 1" x1="116.79" y1="938.01" x2="3464.36" y2="1120.98" xlink:href="#_新規グラデーションスウォッチ_1"/>
    <linearGradient id="_新規グラデーションスウォッチ_1-3" data-name="新規グラデーションスウォッチ 1" x1="112.94" y1="1008.36" x2="3460.51" y2="1191.32" xlink:href="#_新規グラデーションスウォッチ_1"/>
    <linearGradient id="_新規グラデーションスウォッチ_1-4" data-name="新規グラデーションスウォッチ 1" x1="112.74" y1="1012.14" x2="3460.31" y2="1195.1" xlink:href="#_新規グラデーションスウォッチ_1"/>
    <linearGradient id="_新規グラデーションスウォッチ_1-5" data-name="新規グラデーションスウォッチ 1" x1="115.24" y1="966.32" x2="3462.81" y2="1149.29" xlink:href="#_新規グラデーションスウォッチ_1"/>
    <linearGradient id="_新規グラデーションスウォッチ_1-6" data-name="新規グラデーションスウォッチ 1" x1="113.17" y1="1002.92" x2="3460.74" y2="1185.89" xlink:href="#_新規グラデーションスウォッチ_1"/>
    <linearGradient id="_新規グラデーションスウォッチ_1-7" data-name="新規グラデーションスウォッチ 1" x1="-849" y1="861.02" x2="2498.57" y2="1043.99" xlink:href="#_新規グラデーションスウォッチ_1"/>
    <linearGradient id="_新規グラデーションスウォッチ_1-8" data-name="新規グラデーションスウォッチ 1" x1="114.6" y1="978.01" x2="3462.17" y2="1160.97" xlink:href="#_新規グラデーションスウォッチ_1"/>
    <linearGradient id="_新規グラデーションスウォッチ_1-9" data-name="新規グラデーションスウォッチ 1" x1="115.25" y1="966.22" x2="3462.82" y2="1149.18" xlink:href="#_新規グラデーションスウォッチ_1"/>
    <linearGradient id="_新規グラデーションスウォッチ_1-10" data-name="新規グラデーションスウォッチ 1" x1="116.15" y1="949.71" x2="3463.72" y2="1132.68" xlink:href="#_新規グラデーションスウォッチ_1"/>
    <linearGradient id="_新規グラデーションスウォッチ_1-11" data-name="新規グラデーションスウォッチ 1" x1="117.18" y1="930.76" x2="3464.75" y2="1113.73" xlink:href="#_新規グラデーションスウォッチ_1"/>
    <linearGradient id="_新規グラデーションスウォッチ_1-12" data-name="新規グラデーションスウォッチ 1" x1="111.91" y1="1027.24" x2="3459.48" y2="1210.2" xlink:href="#_新規グラデーションスウォッチ_1"/>
    <linearGradient id="_新規グラデーションスウォッチ_1-13" data-name="新規グラデーションスウォッチ 1" x1="111.33" y1="1037.8" x2="3458.9" y2="1220.76" xlink:href="#_新規グラデーションスウォッチ_1"/>
    <linearGradient id="_新規グラデーションスウォッチ_1-14" data-name="新規グラデーションスウォッチ 1" x1="111.22" y1="1039.81" x2="3458.79" y2="1222.77" xlink:href="#_新規グラデーションスウォッチ_1"/>
    <clipPath id="clippath-1">
      <rect class="cls-15" y="70" width="1920" height="1886.96"/>
    </clipPath>
    <linearGradient id="_新規グラデーションスウォッチ_6" data-name="新規グラデーションスウォッチ 6" x1="-8340.58" y1="1464.75" x2="-2556.84" y2="1464.75" gradientTransform="translate(3597.04 -3710.43) rotate(-45)" gradientUnits="userSpaceOnUse">
      <stop offset="0" stop-color="#fff"/>
      <stop offset="1" stop-color="#fff" stop-opacity=".6"/>
    </linearGradient>
    <linearGradient id="_新規グラデーションスウォッチ_6-2" data-name="新規グラデーションスウォッチ 6" x1="-5414.23" y1="2394.61" x2="-4531.35" y2="2394.61" xlink:href="#_新規グラデーションスウォッチ_6"/>
    <linearGradient id="_新規グラデーションスウォッチ_6-3" data-name="新規グラデーションスウォッチ 6" x1="-5414.23" y1="2394.61" x2="-4531.35" y2="2394.61" xlink:href="#_新規グラデーションスウォッチ_6"/>
    <linearGradient id="_新規グラデーションスウォッチ_6-4" data-name="新規グラデーションスウォッチ 6" x1="-5414.23" y1="2394.61" x2="-4531.35" y2="2394.61" xlink:href="#_新規グラデーションスウォッチ_6"/>
    <linearGradient id="_新規グラデーションスウォッチ_6-5" data-name="新規グラデーションスウォッチ 6" x1="-5655.4" y1="2276.1" x2="-4772.52" y2="2276.1" xlink:href="#_新規グラデーションスウォッチ_6"/>
    <linearGradient id="_新規グラデーションスウォッチ_6-6" data-name="新規グラデーションスウォッチ 6" x1="-4388.32" y1="1660.28" x2="-3505.43" y2="1660.28" xlink:href="#_新規グラデーションスウォッチ_6"/>
    <linearGradient id="_新規グラデーションスウォッチ_6-7" data-name="新規グラデーションスウォッチ 6" x1="-4713.31" y1="1305.43" x2="-3589.87" y2="1305.43" xlink:href="#_新規グラデーションスウォッチ_6"/>
    <linearGradient id="_新規グラデーションスウォッチ_6-8" data-name="新規グラデーションスウォッチ 6" x1="-12189.54" y1="1196.66" x2="-4444.09" y2="1196.66" gradientTransform="translate(3597.04 -3710.43) rotate(-45)" xlink:href="#_新規グラデーションスウォッチ_6"/>
    <linearGradient id="_新規グラデーションスウォッチ_6-9" data-name="新規グラデーションスウォッチ 6" x1="-7082.02" y1="1341.78" x2="-5700.51" y2="1341.78" gradientTransform="translate(3597.04 -3710.43) rotate(-45)" xlink:href="#_新規グラデーションスウォッチ_6"/>
    <linearGradient id="_新規グラデーションスウォッチ_6-10" data-name="新規グラデーションスウォッチ 6" x1="-7082.02" y1="1341.78" x2="-5700.51" y2="1341.78" gradientTransform="translate(3597.04 -3710.43) rotate(-45)" xlink:href="#_新規グラデーションスウォッチ_6"/>
    <linearGradient id="_新規グラデーションスウォッチ_6-11" data-name="新規グラデーションスウォッチ 6" x1="-4763.61" y1="1571.01" x2="-3640.17" y2="1571.01" gradientTransform="translate(3597.04 -3710.43) rotate(-45)" xlink:href="#_新規グラデーションスウォッチ_6"/>
    <linearGradient id="_新規グラデーションスウォッチ_6-12" data-name="新規グラデーションスウォッチ 6" x1="-4763.61" y1="1571.01" x2="-3640.17" y2="1571.01" gradientTransform="translate(3597.04 -3710.43) rotate(-45)" xlink:href="#_新規グラデーションスウォッチ_6"/>
    <linearGradient id="_新規グラデーションスウォッチ_6-13" data-name="新規グラデーションスウォッチ 6" x1="-6606.68" y1="1464.05" x2="-5225.17" y2="1464.05" gradientTransform="translate(3597.04 -3710.43) rotate(-45)" xlink:href="#_新規グラデーションスウォッチ_6"/>
    <linearGradient id="_新規グラデーションスウォッチ_6-14" data-name="新規グラデーションスウォッチ 6" x1="-5880.21" y1="366.2" x2="-4842.38" y2="366.2" gradientTransform="translate(3597.04 -3710.43) rotate(-45)" xlink:href="#_新規グラデーションスウォッチ_6"/>
    <linearGradient id="_新規グラデーションスウォッチ_6-15" data-name="新規グラデーションスウォッチ 6" x1="-5880.21" y1="366.2" x2="-4842.38" y2="366.2" gradientTransform="translate(3597.04 -3710.43) rotate(-45)" xlink:href="#_新規グラデーションスウォッチ_6"/>
    <linearGradient id="_新規グラデーションスウォッチ_6-16" data-name="新規グラデーションスウォッチ 6" x1="-5574.56" y1="267.4" x2="-4451.12" y2="267.4" gradientTransform="translate(3597.04 -3710.43) rotate(-45)" xlink:href="#_新規グラデーションスウォッチ_6"/>
    <linearGradient id="_新規グラデーションスウォッチ_6-17" data-name="新規グラデーションスウォッチ 6" x1="-5421.64" y1="269.52" x2="-4732.73" y2="269.52" gradientTransform="translate(3597.04 -3710.43) rotate(-45)" xlink:href="#_新規グラデーションスウォッチ_6"/>
    <linearGradient id="_新規グラデーションスウォッチ_6-18" data-name="新規グラデーションスウォッチ 6" x1="-5423.24" y1="470.66" x2="-3614.88" y2="470.66" gradientTransform="translate(3597.04 -3710.43) rotate(-45)" xlink:href="#_新規グラデーションスウォッチ_6"/>
    <linearGradient id="_新規グラデーションスウォッチ_6-19" data-name="新規グラデーションスウォッチ 6" x1="1260.28" y1="405.87" x2="1605.76" y2="-75.72" gradientTransform="matrix(1,0,0,1,0,0)" xlink:href="#_新規グラデーションスウォッチ_6"/>
    <linearGradient id="_新規グラデーションスウォッチ_6-20" data-name="新規グラデーションスウォッチ 6" x1="256.62" y1="556.11" x2="518.14" y2="224.24" gradientTransform="matrix(1,0,0,1,0,0)" xlink:href="#_新規グラデーションスウォッチ_6"/>
    <linearGradient id="_新規グラデーションスウォッチ_6-21" data-name="新規グラデーションスウォッチ 6" x1="1655.65" y1="1739.54" x2="1899.21" y2="1468.44" gradientTransform="matrix(1,0,0,1,0,0)" xlink:href="#_新規グラデーションスウォッチ_6"/>
    <linearGradient id="_新規グラデーションスウォッチ_6-22" data-name="新規グラデーションスウォッチ 6" x1="128.82" y1="529.13" x2="272.38" y2="374.35" gradientTransform="matrix(1,0,0,1,0,0)" xlink:href="#_新規グラデーションスウォッチ_6"/>
    <linearGradient id="_新規グラデーションスウォッチ_6-23" data-name="新規グラデーションスウォッチ 6" x1="2343.15" y1="1080.18" x2="2870.54" y2="817.45" gradientTransform="translate(514.78 -885.45) rotate(34.84) scale(1.24 1.16) skewX(-19.15)" xlink:href="#_新規グラデーションスウォッチ_6"/>
  </defs>
  <g id="design">
    <rect class="cls-41" width="1920" height="2814.04"/>
    <g class="cls-42">
      <g>
        <g>
          <polygon class="cls-16" points="1681.08 962.96 1617.75 936.89 1554.41 962.96 1554.41 1069.63 1617.75 1069.63 1681.08 1069.63 1681.08 962.96"/>
          <g>
            <rect class="cls-40" x="1580.47" y="1033.98" width="57.68" height="35.66"/>
            <rect class="cls-40" x="1638.1" y="1033.98" width="16.93" height="35.66"/>
          </g>
          <g>
            <rect class="cls-40" x="1580.47" y="986.24" width="16.93" height="17.4"/>
            <rect class="cls-40" x="1609.28" y="986.24" width="16.93" height="17.4"/>
            <rect class="cls-40" x="1638.1" y="986.24" width="16.93" height="17.4"/>
          </g>
        </g>
        <g>
          <polygon class="cls-27" points="1152.5 928.41 1152.43 1069.63 1313.59 1069.63 1313.68 928.41 1152.5 928.41"/>
          <rect class="cls-40" x="1184.87" y="1028.94" width="28.37" height="40.69"/>
          <g>
            <rect class="cls-40" x="1174.55" y="951.77" width="16.72" height="17.97"/>
            <rect class="cls-40" x="1208.06" y="951.77" width="16.72" height="17.97"/>
            <rect class="cls-40" x="1241.57" y="951.77" width="16.72" height="17.97"/>
          </g>
          <g>
            <rect class="cls-40" x="1174.55" y="990.13" width="16.72" height="17.97"/>
            <rect class="cls-40" x="1208.06" y="990.13" width="16.72" height="17.97"/>
            <rect class="cls-40" x="1241.57" y="990.13" width="16.72" height="17.97"/>
            <rect class="cls-40" x="1274.97" y="951.77" width="16.72" height="17.97"/>
            <rect class="cls-40" x="1274.97" y="990.13" width="16.72" height="17.97"/>
            <rect class="cls-40" x="1241.57" y="1028.51" width="16.72" height="17.97"/>
            <rect class="cls-40" x="1274.97" y="1028.51" width="16.72" height="17.97"/>
          </g>
        </g>
        <g>
          <polygon class="cls-29" points="341.96 1069.63 209.04 1069.63 209.14 962.45 297.91 962.45 342.02 1003.62 341.96 1069.63"/>
          <polygon class="cls-28" points="255.54 1004.52 209.26 962.66 162.98 1004.52 162.98 1032.04 162.98 1069.63 209.26 1069.63 255.54 1069.63 255.54 1032.04 255.54 1004.52"/>
          <rect class="cls-40" x="200.65" y="996.42" width="16.74" height="16.74"/>
          <rect class="cls-40" x="275.17" y="1033.89" width="16.74" height="16.74"/>
          <rect class="cls-40" x="218.62" y="1033.89" width="16.74" height="16.74"/>
          <rect class="cls-40" x="307.08" y="1033.89" width="16.74" height="16.74"/>
          <rect class="cls-40" x="181.84" y="1033.9" width="17.31" height="35.74"/>
        </g>
        <g>
          <polygon class="cls-32" points="762.44 973.56 762.44 950.05 718.24 950.05 718.24 926.55 674.05 926.55 674.05 1024.11 674.07 1024.11 674.05 1069.6 806.54 1069.6 806.54 1064.41 806.63 1064.41 806.63 973.56 762.44 973.56"/>
          <rect class="cls-40" x="750.32" y="1033.89" width="36.01" height="16.74"/>
          <rect class="cls-40" x="695.85" y="1033.9" width="17.31" height="35.74"/>
          <rect class="cls-40" x="713.22" y="1033.9" width="17.31" height="35.74"/>
          <rect class="cls-40" x="695.7" y="993.78" width="16.74" height="16.74"/>
          <rect class="cls-40" x="730.75" y="993.78" width="16.74" height="16.74"/>
        </g>
        <g>
          <polygon class="cls-33" points="470.83 1000.54 438.62 968.33 406.41 1000.54 375.43 1000.54 375.37 1069.63 502.72 1069.63 502.78 1000.54 470.83 1000.54"/>
          <polygon class="cls-40" points="502.77 960.12 375.42 960.12 375.38 1000.54 406.36 1000.54 438.57 968.33 470.78 1000.54 502.73 1000.54 502.77 960.12"/>
          <rect class="cls-40" x="430.71" y="1001.01" width="16.74" height="16.74"/>
          <rect class="cls-40" x="392.33" y="1033.94" width="16.74" height="16.74"/>
          <rect class="cls-40" x="469.33" y="1033.94" width="16.74" height="16.74"/>
          <rect class="cls-40" x="426.21" y="1033.98" width="25.74" height="35.66"/>
        </g>
        <g>
          <rect class="cls-31" x="1846.74" y="954.01" width="126.68" height="115.62"/>
          <g>
            <rect class="cls-40" x="1872.8" y="1033.98" width="16.93" height="35.66"/>
            <rect class="cls-40" x="1901.61" y="1033.98" width="16.93" height="35.66"/>
          </g>
          <g>
            <rect class="cls-40" x="1872.8" y="986.24" width="16.93" height="17.4"/>
            <rect class="cls-40" x="1901.61" y="986.24" width="16.93" height="17.4"/>
          </g>
        </g>
        <g>
          <polygon class="cls-30" points="954.7 1069.63 840.62 1069.63 840.72 1004.21 954.8 971.98 954.7 1069.63"/>
          <polygon class="cls-26" points="1029.26 1069.63 915.18 1069.63 915.27 950.25 1029.36 982.78 1029.26 1069.63"/>
          <rect class="cls-40" x="862.51" y="1033.98" width="32.48" height="35.66"/>
          <rect class="cls-40" x="941.7" y="992.42" width="16.74" height="16.74"/>
          <rect class="cls-40" x="984.11" y="992.42" width="16.74" height="16.74"/>
          <rect class="cls-40" x="941.75" y="1033.98" width="20" height="35.66"/>
          <rect class="cls-40" x="961.75" y="1033.98" width="20" height="35.66"/>
          <rect class="cls-40" x="981.74" y="1033.98" width="20" height="35.66"/>
        </g>
        <g>
          <rect class="cls-13" x="1416.55" y="975.13" width="58.39" height="94.5"/>
          <polygon class="cls-11" points="1344.73 958.34 1416.55 930 1416.55 1069.63 1344.73 1069.63 1344.73 958.34"/>
          <rect class="cls-40" x="1437.09" y="1033.98" width="17.31" height="35.66"/>
          <rect class="cls-40" x="1437.38" y="996.21" width="16.74" height="16.74"/>
          <rect class="cls-40" x="1372.27" y="1006.7" width="16.74" height="16.74" transform="translate(2761.28 2030.13) rotate(180)"/>
          <rect class="cls-40" x="1372.27" y="972.08" width="16.74" height="16.74" transform="translate(2761.28 1960.89) rotate(180)"/>
        </g>
        <path class="cls-39" d="m40.14,1019.92c1.93-2.52,3.09-5.67,3.09-9.09,0-8.27-6.7-14.97-14.97-14.97s-14.97,6.7-14.97,14.97c0,3.42,1.16,6.57,3.09,9.09-5.67,3.82-9.39,10.3-9.39,17.65,0,11.75,9.52,21.27,21.27,21.27s21.27-9.52,21.27-21.27c0-7.35-3.73-13.83-9.39-17.65Z"/>
        <path class="cls-39" d="m650.73,1019.92c1.93-2.52,3.09-5.67,3.09-9.09,0-8.27-6.7-14.97-14.97-14.97s-14.97,6.7-14.97,14.97c0,3.42,1.16,6.57,3.09,9.09-5.67,3.82-9.39,10.3-9.39,17.65,0,11.75,9.52,21.27,21.27,21.27s21.27-9.52,21.27-21.27c0-7.35-3.73-13.83-9.39-17.65Z"/>
        <path class="cls-39" d="m1531.48,1019.92c1.93-2.52,3.09-5.67,3.09-9.09,0-8.27-6.7-14.97-14.97-14.97s-14.97,6.7-14.97,14.97c0,3.42,1.16,6.57,3.09,9.09-5.67,3.82-9.39,10.3-9.39,17.65,0,11.75,9.52,21.27,21.27,21.27s21.27-9.52,21.27-21.27c0-7.35-3.73-13.83-9.39-17.65Z"/>
        <path class="cls-39" d="m89.79,1031.6c1.48-1.93,2.37-4.33,2.37-6.95,0-6.33-5.13-11.45-11.45-11.45s-11.45,5.13-11.45,11.45c0,2.62.89,5.02,2.37,6.95-4.34,2.92-7.19,7.88-7.19,13.5,0,8.99,7.29,16.27,16.27,16.27s16.27-7.29,16.27-16.27c0-5.62-2.85-10.58-7.19-13.5Z"/>
        <path class="cls-39" d="m1124.1,1031.6c1.48-1.93,2.37-4.33,2.37-6.95,0-6.33-5.13-11.45-11.45-11.45s-11.45,5.13-11.45,11.45c0,2.62.89,5.02,2.37,6.95-4.34,2.92-7.19,7.88-7.19,13.5,0,8.99,7.29,16.27,16.27,16.27s16.27-7.29,16.27-16.27c0-5.62-2.85-10.58-7.19-13.5Z"/>
        <path class="cls-39" d="m1767.09,1031.6c1.48-1.93,2.37-4.33,2.37-6.95,0-6.33-5.13-11.45-11.45-11.45s-11.45,5.13-11.45,11.45c0,2.62.89,5.02,2.37,6.95-4.34,2.92-7.19,7.88-7.19,13.5,0,8.99,7.29,16.27,16.27,16.27s16.27-7.29,16.27-16.27c0-5.62-2.85-10.58-7.19-13.5Z"/>
        <path class="cls-39" d="m1812.58,1031.6c1.48-1.93,2.37-4.33,2.37-6.95,0-6.33-5.13-11.45-11.45-11.45s-11.45,5.13-11.45,11.45c0,2.62.89,5.02,2.37,6.95-4.34,2.92-7.19,7.88-7.19,13.5,0,8.99,7.29,16.27,16.27,16.27s16.27-7.29,16.27-16.27c0-5.62-2.85-10.58-7.19-13.5Z"/>
        <path class="cls-39" d="m1723.5,1031.6c1.48-1.93,2.37-4.33,2.37-6.95,0-6.33-5.13-11.45-11.45-11.45s-11.45,5.13-11.45,11.45c0,2.62.89,5.02,2.37,6.95-4.34,2.92-7.19,7.88-7.19,13.5,0,8.99,7.29,16.27,16.27,16.27s16.27-7.29,16.27-16.27c0-5.62-2.85-10.58-7.19-13.5Z"/>
        <path class="cls-40" d="m1009.47,885.09h-.29c-.54-8.82-7.85-15.81-16.8-15.81s-16.26,6.99-16.8,15.81h-5.97c-5.94,0-10.8,4.86-10.8,10.8h0c0,5.94,4.86,10.8,10.8,10.8h39.87c5.94,0,10.8-4.86,10.8-10.8h0c0-5.94-4.86-10.8-10.8-10.8Z"/>
        <path class="cls-40" d="m258.44,689.27h-.7c-1.3-21-18.69-37.64-40.01-37.64s-38.71,16.64-40.01,37.64h-14.22c-14.14,0-25.71,11.57-25.71,25.71h0c0,14.14,11.57,25.71,25.71,25.71h94.94c14.14,0,25.71-11.57,25.71-25.71h0c0-14.14-11.57-25.71-25.71-25.71Z"/>
        <path class="cls-40" d="m1763.44,668.27h-.7c-1.3-21-18.69-37.64-40.01-37.64s-38.71,16.64-40.01,37.64h-14.22c-14.14,0-25.71,11.57-25.71,25.71h0c0,14.14,11.57,25.71,25.71,25.71h94.94c14.14,0,25.71-11.57,25.71-25.71h0c0-14.14-11.57-25.71-25.71-25.71Z"/>
        <path class="cls-40" d="m472.75,852.88h-.27c1.53-2.54,2.43-5.5,2.43-8.68,0-9.28-7.52-16.81-16.81-16.81-6.96,0-12.93,4.23-15.48,10.26-1.93-1.03-4.14-1.61-6.48-1.61-7.65,0-13.85,6.2-13.85,13.85,0,1.12.15,2.2.4,3.24-4.85,1.08-8.51,5.42-8.51,10.58h0c0,5.97,4.88,10.85,10.85,10.85h47.72c5.97,0,10.85-4.88,10.85-10.85h0c0-5.97-4.88-10.85-10.85-10.85Z"/>
        <path class="cls-40" d="m39.75,852.88h-.27c1.53-2.54,2.43-5.5,2.43-8.68,0-9.28-7.52-16.81-16.81-16.81-6.96,0-12.93,4.23-15.48,10.26-1.93-1.03-4.14-1.61-6.48-1.61-7.65,0-13.85,6.2-13.85,13.85,0,1.12.15,2.2.4,3.24-4.85,1.08-8.51,5.42-8.51,10.58h0c0,5.97,4.88,10.85,10.85,10.85h47.72c5.97,0,10.85-4.88,10.85-10.85h0c0-5.97-4.88-10.85-10.85-10.85Z"/>
        <path class="cls-40" d="m824.75,848.88h-.27c1.53-2.54,2.43-5.5,2.43-8.68,0-9.28-7.52-16.81-16.81-16.81-6.96,0-12.93,4.23-15.48,10.26-1.93-1.03-4.14-1.61-6.48-1.61-7.65,0-13.85,6.2-13.85,13.85,0,1.12.15,2.2.4,3.24-4.85,1.08-8.51,5.42-8.51,10.58h0c0,5.97,4.88,10.85,10.85,10.85h47.72c5.97,0,10.85-4.88,10.85-10.85h0c0-5.97-4.88-10.85-10.85-10.85Z"/>
        <path class="cls-40" d="m1520.38,823.99h.27c-1.53-2.54-2.43-5.5-2.43-8.68,0-9.28,7.52-16.81,16.81-16.81,6.96,0,12.93,4.23,15.48,10.26,1.93-1.03,4.14-1.61,6.48-1.61,7.65,0,13.85,6.2,13.85,13.85,0,1.12-.15,2.2-.4,3.24,4.85,1.08,8.51,5.42,8.51,10.58h0c0,5.97-4.88,10.85-10.85,10.85h-47.72c-5.96,0-10.85-4.88-10.85-10.85h0c0-5.97,4.88-10.85,10.85-10.85Z"/>
        <circle class="cls-40" cx="134.84" cy="993.68" r="7.73"/>
        <path class="cls-40" d="m1066.8,993.68c0,4.27-3.46,7.73-7.73,7.73s-7.73-3.46-7.73-7.73,3.46-7.73,7.73-7.73,7.73,3.46,7.73,7.73Z"/>
        <g>
          <polygon class="cls-14" points="525.46 1064.32 593.22 1064.32 593.22 1052.1 580.06 1047.36 571.03 1037.86 541.18 1037.86 534.54 1047.43 525.46 1050.21 525.46 1064.32"/>
          <circle class="cls-12" cx="576.74" cy="1063.24" r="6.4"/>
          <circle class="cls-10" cx="539.86" cy="1063.24" r="6.4"/>
        </g>
        <line class="cls-43" x1="28.26" y1="1043.84" x2="28.26" y2="1069.63"/>
        <line class="cls-43" x1="638.85" y1="1043.84" x2="638.85" y2="1069.63"/>
        <line class="cls-43" x1="1519.6" y1="1043.84" x2="1519.6" y2="1069.63"/>
        <line class="cls-43" x1="80.7" y1="1049.9" x2="80.7" y2="1069.63"/>
        <line class="cls-43" x1="1115.02" y1="1049.9" x2="1115.02" y2="1069.63"/>
        <line class="cls-43" x1="1758.01" y1="1049.9" x2="1758.01" y2="1069.63"/>
        <line class="cls-43" x1="1803.5" y1="1049.9" x2="1803.5" y2="1069.63"/>
        <line class="cls-43" x1="1714.41" y1="1049.9" x2="1714.41" y2="1069.63"/>
        <line class="cls-43" x1="135.02" y1="1001.51" x2="135.02" y2="1069.63"/>
        <line class="cls-43" x1="1059.25" y1="1001.51" x2="1059.25" y2="1069.63"/>
      </g>
    </g>
    <g class="cls-44">
      <g class="cls-45">
        <path class="cls-17" d="m1894.97.8l-140.43,140.43c-17.2,17.2-17.21,45.1,0,62.31,17.21,17.21,45.1,17.2,62.31,0l140.43-140.43c17.2-17.2,17.21-45.1,0-62.31-17.21-17.21-45.1-17.2-62.31,0Z"/>
        <path class="cls-25" d="m1866.03,1394.7l-14.44,14.44c-3.42,3.42-3.42,8.96,0,12.38s8.96,3.42,12.38,0l14.44-14.44c3.42-3.42,3.42-8.96,0-12.38s-8.96-3.42-12.38,0Z"/>
        <path class="cls-19" d="m1812.39,1448.34l-72.21,72.21c-3.42,3.42-3.42,8.96,0,12.38,3.42,3.42,8.96,3.42,12.38,0l72.21-72.21c3.42-3.42,3.42-8.96,0-12.38-3.42-3.42-8.96-3.42-12.38,0Z"/>
        <path class="cls-21" d="m1717.48,1555.62c-3.42-3.42-8.96-3.42-12.38,0l-237.27,237.27c-3.42,3.42-3.42,8.96,0,12.38,3.42,3.42,8.96,3.42,12.38,0l237.27-237.27c3.42-3.42,3.42-8.96,0-12.38Z"/>
        <path class="cls-23" d="m1638.52,1450.48l-103.16,103.16c-4.56,4.56-4.56,11.95,0,16.51s11.95,4.56,16.51,0l103.16-103.16c4.56-4.56,4.56-11.95,0-16.51s-11.95-4.56-16.51,0Z"/>
        <path class="cls-18" d="m1857.64,360.45c-4.56,4.56-4.56,11.95,0,16.51s11.95,4.56,16.51,0l107.29-107.29c4.56-4.56,4.56-11.95,0-16.51-4.56-4.56-11.95-4.56-16.51,0l-107.29,107.29Z"/>
        <path class="cls-22" d="m1523.09,228.06l168.02-168.02c5.07-5.07,5.07-13.3,0-18.38-5.07-5.07-13.3-5.07-18.38,0l-168.02,168.02c-5.07,5.07-5.07,13.3,0,18.38,5.07,5.07,13.3,5.07,18.38,0Z"/>
      </g>
      <g class="cls-45">
        <path class="cls-20" d="m90.4,1439.97l-222.93,222.93c-13.41,13.41-13.41,35.16,0,48.57,13.41,13.41,35.16,13.41,48.57,0l222.93-222.93c13.41-13.41,13.41-35.16,0-48.57-13.41-13.41-35.16-13.41-48.57,0Z"/>
        <path class="cls-24" d="m170.53,1594.28l-22.6,22.6c-5.35,5.35-5.35,14.02,0,19.37s14.02,5.35,19.37,0l22.6-22.6c5.35-5.35,5.35-14.02,0-19.37-5.35-5.35-14.02-5.35-19.37,0Z"/>
        <path class="cls-8" d="m86.59,1678.22l-112.99,112.99c-5.35,5.35-5.35,14.02,0,19.37s14.02,5.35,19.37,0l112.99-112.99c5.35-5.35,5.35-14.02,0-19.37-5.35-5.35-14.02-5.35-19.37,0Z"/>
        <path class="cls-9" d="m1853.84,238.77l-18.38,18.38c-4.35,4.35-4.35,11.4,0,15.75,4.35,4.35,11.4,4.35,15.75,0l18.38-18.38c4.35-4.35,4.35-11.4,0-15.75s-11.4-4.35-15.75,0Z"/>
        <path class="cls-4" d="m1785.58,307.03l-91.89,91.89c-4.35,4.35-4.35,11.4,0,15.75,4.35,4.35,11.4,4.35,15.75,0l91.89-91.89c4.35-4.35,4.35-11.4,0-15.75s-11.4-4.35-15.75,0Z"/>
        <path class="cls-6" d="m360.66,1596.43c-5.35-5.35-14.02-5.35-19.37,0L-29.98,1967.7c-5.35,5.35-5.35,14.02,0,19.37,5.35,5.35,14.02,5.35,19.37,0l371.27-371.27c5.35-5.35,5.35-14.02,0-19.37Z"/>
        <path class="cls-7" d="m204.69,180.4l-121.26,121.26c-5.36,5.36-5.36,14.04,0,19.4,5.36,5.36,14.04,5.36,19.4,0l121.26-121.26c5.36-5.36,5.36-14.04,0-19.4s-14.04-5.36-19.4,0Z"/>
        <path class="cls-5" d="m-79.06,464.16c-5.36,5.36-5.36,14.04,0,19.4s14.04,5.36,19.4,0l126.11-126.11c5.36-5.36,5.36-14.04,0-19.4-5.36-5.36-14.04-5.36-19.4,0l-126.11,126.11Z"/>
        <path class="cls-1" d="m180.09,103.06l168.02-168.02c5.07-5.07,5.07-13.3,0-18.38-5.07-5.07-13.3-5.07-18.38,0L161.72,84.68c-5.07,5.07-5.07,13.3,0,18.38,5.07,5.07,13.3,5.07,18.38,0Z"/>
        <path class="cls-2" d="m67.15,219l66.56-66.56c5.03-5.03,5.54-13.3.66-18.48-5.05-5.36-13.49-5.45-18.66-.29l-66.95,66.95c-5.07,5.07-5.07,13.3,0,18.38h0c5.07,5.07,13.3,5.07,18.38,0Z"/>
        <path class="cls-3" d="m351.6,229.4l397.44-397.44c7.88-7.88,8.68-20.82,1.04-28.93-7.9-8.39-21.12-8.54-29.21-.45L322.82,200.63c-7.95,7.95-7.95,20.83,0,28.77h0c7.95,7.95,20.83,7.95,28.77,0Z"/>
      </g>
      <circle class="cls-38" cx="1460.08" cy="127.35" r="19.62"/>
      <circle class="cls-35" cx="498.93" cy="248.62" r="18.17"/>
      <circle class="cls-34" cx="1718.7" cy="1669.36" r="16.06"/>
      <circle class="cls-37" cx="154.3" cy="501.66" r="24.77"/>
      <rect class="cls-36" x="1791.71" y="1533.26" width="212.1" height="50.48" rx="25.24" ry="25.24" transform="translate(-546.18 1798.39) rotate(-45)"/>
    </g>
  </g>
</svg>